<?xml version="1.0" encoding="UTF-8" standalone="no"?>
<!-- Created with Inkscape (http://www.inkscape.org/) -->

<svg
   width="512"
   height="512"
   viewBox="0 0 512 512"
   version="1.1"
   id="svg1"
   xml:space="preserve"
   xmlns="http://www.w3.org/2000/svg"
   xmlns:svg="http://www.w3.org/2000/svg"><defs
     id="defs1" /><g
     id="layer1"><g
       id="g2"
       transform="translate(1.246134,20.35485)"><g
         id="g11"
         transform="matrix(1.7741506,0,0,1.7741506,-227.82464,-178.11529)"><path
           style="fill:#ffffff;fill-opacity:1;stroke-width:0.246285;paint-order:markers fill stroke"
           d="m 263.27847,257.10126 c -15.18172,-2.56164 -31.03138,-8.22676 -41.60759,-18.4627 -4.72616,-4.57412 -7.53281,-9.28875 -10.18977,-14.76567 -5.59221,-11.52749 -5.97958,-23.28699 -0.37834,-34.4855 7.25013,-14.49508 23.55648,-26.21726 42.62626,-31.06173 10.3249,-2.62293 26.14102,-2.45363 37.41337,-0.0193 11.26479,2.43268 21.9764,7.12404 29.85376,13.73422 5.41999,4.54811 10.68855,11.07374 13.9986,17.52957 3.1893,6.22031 4.04071,8.56233 4.03809,17.61315 -0.003,9.03559 -0.53879,10.15529 -3.79136,16.74808 -3.08176,6.24656 -5.99777,10.94314 -10.41113,15.22568 -5.50464,5.34147 -13.65965,8.76739 -23.50091,12.66044 -10.0179,3.96292 -13.87476,5.81819 -26.66033,5.97353 -4.33462,0.0527 -7.37608,-0.0124 -8.91726,-0.27242 z m 38.78663,-32.49902 c 2.15321,-0.56084 4.15625,-1.73765 6.18926,-3.63626 9.39435,-8.77329 11.15868,-27.75672 3.66804,-39.4665 -1.12477,-1.75829 -3.69918,-4.48728 -5.48965,-5.81927 -1.81652,-1.35137 -4.47746,-2.57449 -6.6547,-3.05888 -5.91478,-1.31591 -12.94426,2.1704 -17.15883,8.51002 -5.07959,7.6408 -6.36486,19.405 -3.17002,29.01545 1.91337,5.75561 6.11017,11.30161 10.06601,13.30206 3.27344,1.65536 8.70587,2.15462 12.54989,1.15338 z m -51.87374,-0.12531 c 2.35844,-0.38269 3.78531,-1.24364 6.45311,-3.89369 5.916,-5.87664 8.2058,-11.95651 8.17576,-21.70826 -0.0296,-9.60368 -2.37562,-16.16704 -7.60822,-21.28495 -5.60725,-5.48435 -12.29788,-6.71797 -18.59347,-3.42826 -3.48245,1.81972 -6.97634,5.41736 -8.93204,9.19727 -2.24948,4.34772 -3.10447,8.74374 -3.10447,15.96187 0,6.99466 0.58922,9.98829 2.78557,14.15236 2.15959,4.09439 6.96975,9.43474 9.60188,10.66023 1.19746,0.55752 1.55549,0.59661 5.46819,0.59712 2.30277,3e-4 4.89193,-0.11386 5.75369,-0.25369 z"
           id="path9"
           transform="translate(-1.246134,-20.35485)" /><path
           style="fill:#ffffff;fill-opacity:1;stroke-width:0.246285;paint-order:markers fill stroke"
           d="m 251.7753,195.81866 c -0.93631,-0.40125 -2.09003,-2.40213 -2.78249,-4.29088 -0.64977,-1.77231 -0.14368,-6.35338 0.43394,-7.47311 0.60235,-1.16766 2.49591,-1.59845 3.25282,-0.89142 1.02272,0.95532 3.72801,5.57422 4.20177,7.86537 0.40482,1.95775 -0.2067,3.34301 -0.68253,4.20941 -0.71186,1.29609 -2.85357,1.25342 -3.81394,0.84186 z"
           id="path10"
           transform="translate(-1.246134,-20.35485)" /><path
           style="fill:#ffffff;fill-opacity:1;stroke-width:0.246285;paint-order:markers fill stroke"
           d="m 303.58749,196.03703 c -2.05751,-1.89654 -3.42607,-6.495 -3.42607,-9.80237 0,-1.56051 1.23286,-1.88092 1.55535,-2.47298 0.71611,-1.31473 0.68567,-0.64892 0.89983,-0.64892 1.07209,0 4.15739,3.29739 5.08594,6.49666 0.702,2.41873 0.72347,7.20426 -0.21857,7.83328 -0.4506,0.30087 -2.78598,-0.38204 -3.89648,-1.40567 z"
           id="path11"
           transform="translate(-1.246134,-20.35485)" /><path
           style="fill:#daa51e;fill-opacity:1"
           d="m 243.89219,279.10065 c -5.53004,-3.02865 -17.68215,-14.63116 -28.71003,-31.30891 -22.08807,-33.40437 -26.52396,-56.08313 -20.92644,-77.96921 6.15463,-24.06439 27.53063,-43.36835 54.91775,-51.12162 11.4682,-3.24664 35.40739,-1.50222 46.7747,1.74749 21.89109,6.25878 40.12561,22.8503 49.49912,42.36766 2.11317,4.4 7.17795,10.54045 7.84947,13.64545 1.8519,8.56274 0.032,25.77588 -3.01804,34.45797 -2.04081,5.80931 -8.12284,13.51367 -9.16198,14.75054 -0.12672,0.15084 -4.56341,1.99239 -8.35424,3.0432 -3.79084,1.05082 -15.1942,4.31109 -16.15986,4.682 -0.96566,0.3709 7.41484,-8.68891 11.14519,-12.46146 17.88279,-18.08515 19.73366,-39.04989 7.31115,-59.7694 -9.23718,-15.40669 -25.67694,-24.61016 -47.17685,-29.05644 -10.62057,-2.19638 -27.99053,-1.05766 -38.24326,1.91691 -14.41603,4.18244 -27.89946,11.91901 -35.35722,21.35378 -22.41469,28.35671 -12.16251,60.78754 23.59108,78.70445 18.25498,9.14797 41.8971,12.18201 61.63784,4.97308 l 11.83573,-3.96242 -8.2745,9.42917 c -2.48861,2.83588 -8.68755,8.34509 -12.35303,13.34141 -11.97153,16.31811 -21.41349,25.46695 -34.0419,26.24454 -5.77166,0.35538 -11.6236,-2.37389 -14.5648,-3.98468 z"
           id="path7" /><path
           style="fill:#339933;fill-opacity:1"
           d="m 268.90848,339.91462 c -0.37157,-0.9625 -2.86255,-8.05 -5.53552,-15.75 -5.40759,-15.57759 -9.49616,-25.15293 -13.34002,-31.24199 l -2.56465,-4.06268 8.70089,-0.35257 c 15.73257,-0.63751 25.50477,-7.15027 40.12585,-26.7422 4.51307,-6.04743 10.47481,-12.70875 13.37999,-14.95008 5.37652,-4.14795 18.38479,-10.79407 19.31205,-9.86681 0.2851,0.2851 -3.26548,5.6254 -7.89016,11.86734 -16.6459,22.467 -33.01627,46.49175 -36.69249,53.84899 -4.17186,8.34917 -8.88044,20.77041 -12.03562,31.75 -1.14588,3.9875 -2.24122,7.25 -2.43408,7.25 -0.19287,0 -0.65468,-0.7875 -1.02624,-1.75 z"
           id="path4" /><path
           style="fill:#000000"
           d="m 265.41141,353.70596 c -1.07726,-1.07726 -2.91251,-5.23976 -4.07832,-9.25 -4.01122,-13.79807 -9.31247,-28.30755 -13.23029,-36.21119 -2.15922,-4.35591 -13.30453,-21.9547 -24.76736,-39.10841 -27.72675,-41.49209 -34.39746,-54.80067 -37.08021,-73.97786 -4.56758,-32.65048 18.28307,-66.48682 53.31401,-78.94529 13.36548,-4.75332 21.32297,-5.91254 36.42317,-5.30599 13.7309,0.55154 24.12225,3.0877 34.87766,8.51242 27.95006,14.09719 47.46527,42.77265 47.46527,69.74498 0,17.26787 -8.78376,39.68206 -22.65179,57.80226 -40.98082,53.54625 -46.63037,62.87796 -54.90959,90.69774 -2.04601,6.875 -4.57954,13.7375 -5.63005,15.25 -2.31705,3.33602 -6.82156,3.70228 -9.7325,0.79134 z m 6.95739,-19.29134 c 3.15518,-10.97959 7.86376,-23.40083 12.03562,-31.75 3.67622,-7.35724 20.04659,-31.38199 36.69249,-53.84899 4.62468,-6.24194 8.17526,-11.58224 7.89016,-11.86734 -0.92726,-0.92726 -13.93553,5.71886 -19.31205,9.86681 -2.90518,2.24133 -8.86692,8.90265 -13.37999,14.95008 -14.62108,19.59193 -24.39328,26.10469 -40.12585,26.7422 l -8.70089,0.35257 2.56465,4.06268 c 3.84386,6.08906 7.93243,15.6644 13.34002,31.24199 5.72883,16.50301 6.10266,17.5 6.56176,17.5 0.19286,0 1.2882,-3.2625 2.43408,-7.25 z m -4.46146,-56.34237 c 7.45802,-3.4817 12.35989,-8.15776 22.15367,-21.13314 4.84498,-6.41892 11.14767,-13.4805 14.00598,-15.69238 2.8583,-2.21188 5.1083,-4.10364 5,-4.20391 -0.10831,-0.10027 -4.0595,1.11328 -8.78043,2.69679 -37.2866,12.50674 -81.24336,-1.91786 -95.76851,-31.42684 -3.76793,-7.65484 -5.09909,-13.30627 -5.09909,-21.64815 0,-14.03095 4.79483,-24.87214 15.93427,-36.02771 5.93191,-5.94048 9.51993,-8.52733 17.01684,-12.26859 14.10944,-7.04118 22.53965,-8.95167 39.5,-8.95167 16.85807,0 25.21993,1.88211 39.5,8.89079 12.6334,6.20049 23.75282,15.73818 28.59076,27.80532 l 3.1691,7.9046 c 0.89782,3.92499 1.81761,8.0877 1.21905,12.47311 -0.089,3.96321 -0.1036,7.58374 -0.65306,11.82006 -0.7256,2.81189 -2.25534,6.30209 -3.74846,8.89469 -4.3229,7.50613 -12.43915,17.74906 -20.07739,23.30425 l -3,2.18186 5.40086,-2.05822 c 2.97047,-1.13202 8.34678,-2.86522 11.94735,-3.85155 l 6.54651,-1.79333 2.87723,-6.79349 c 10.84779,-25.61292 8.38653,-46.94256 -7.86862,-68.19047 -15.59768,-20.3885 -38.57104,-31.70009 -64.40333,-31.7108 -19.08297,-0.008 -36.73552,6.06463 -51.72614,17.79398 -15.76738,12.33713 -26.21425,32.864 -26.24949,51.57717 -0.0281,14.91722 8.11505,34.52604 24.73765,59.56868 14.79453,22.28857 23.44018,31.7359 30.66816,33.51192 4.72774,1.16168 13.53106,-0.0699 19.10709,-2.67297 z m 21.76533,-42.98693 c 3.95857,-0.86861 11.75514,-3.77485 17.32572,-6.45831 12.83034,-6.18064 20.54456,-13.48651 26.09185,-24.71069 3.57551,-7.23456 3.77983,-8.1643 3.77983,-17.19983 0,-8.32544 -0.35234,-10.30402 -2.74413,-15.4099 -7.78587,-16.62085 -22.41209,-27.7127 -43.07602,-32.66685 -11.18664,-2.68198 -27.58846,-2.67382 -38.26989,0.019 -30.07201,7.58136 -49.89971,31.13889 -45.61241,54.19267 3.74457,20.1354 22.56927,36.88332 47.56777,42.32 8.60488,1.87139 26.21403,1.82798 34.93728,-0.0861 z m -51.3026,-31.06902 c -3.14773,-1.25324 -8.33922,-7.05081 -10.61269,-11.85168 -1.87777,-3.96527 -2.36979,-6.67044 -2.37754,-13.07186 -0.0122,-10.09599 1.97695,-16.14285 7.01964,-21.339 7.33254,-7.55569 16.61649,-7.5476 23.96144,0.0209 4.94687,5.09741 7.21306,11.83896 7.17577,21.34674 -0.0353,9.01265 -2.60511,15.61258 -8.20988,21.0855 -3.50377,3.42133 -4.53175,3.85818 -9.6882,4.11705 -3.1727,0.15927 -6.44354,0.0209 -7.26854,-0.30762 z m 16.4914,-30.32457 c 0.81304,-2.56167 -3.03294,-11.34447 -4.72452,-10.78905 -1.91482,0.62871 -2.08827,6.23975 -0.29981,9.69827 1.80698,3.49431 4.10325,3.99283 5.02433,1.09078 z m 32.43028,28.6991 c -7.34558,-4.95019 -11.55945,-15.5789 -10.61983,-26.78661 0.98287,-11.72374 6.88716,-20.41791 15.64866,-23.04291 5.47429,-1.64014 11.77258,0.7936 16.57584,6.40513 10.64164,12.43236 7.40575,37.46039 -5.72669,44.2932 -4.25289,2.21277 -11.92844,1.79278 -15.87798,-0.86881 z m 19.07458,-30.03522 c -0.004,-3.3449 -3.25359,-9.69099 -4.96251,-9.69099 -2.94431,0 -1.7981,8.39294 1.6695,12.22459 2.08213,2.30072 3.29758,1.36557 3.29301,-2.5336 z"
           id="path2" /></g></g></g></svg>
